<svg id="visual" viewBox="0 0 900 600" width="900" height="600" xmlns="http://www.w3.org/2000/svg" xmlns:xlink="http://www.w3.org/1999/xlink" version="1.1"><path d="M0 97L82 103L164 91L245 115L327 97L409 91L491 133L573 61L655 103L736 97L818 115L900 115L900 0L818 0L736 0L655 0L573 0L491 0L409 0L327 0L245 0L164 0L82 0L0 0Z" fill="#a13941"></path><path d="M0 187L82 145L164 193L245 151L327 187L409 139L491 169L573 139L655 151L736 169L818 217L900 175L900 113L818 113L736 95L655 101L573 59L491 131L409 89L327 95L245 113L164 89L82 101L0 95Z" fill="#b13c46"></path><path d="M0 313L82 295L164 271L245 247L327 259L409 211L491 247L573 211L655 283L736 247L818 307L900 289L900 173L818 215L736 167L655 149L573 137L491 167L409 137L327 185L245 149L164 191L82 143L0 185Z" fill="#c13f4a"></path><path d="M0 409L82 433L164 427L245 511L327 403L409 445L491 403L573 355L655 499L736 373L818 517L900 409L900 287L818 305L736 245L655 281L573 209L491 245L409 209L327 257L245 245L164 269L82 293L0 311Z" fill="#d1424e"></path><path d="M0 601L82 601L164 601L245 601L327 601L409 601L491 601L573 601L655 601L736 601L818 601L900 601L900 407L818 515L736 371L655 497L573 353L491 401L409 443L327 401L245 509L164 425L82 431L0 407Z" fill="#e24552"></path></svg>