<svg id="visual" viewBox="0 0 900 600" width="900" height="600" xmlns="http://www.w3.org/2000/svg" xmlns:xlink="http://www.w3.org/1999/xlink" version="1.1"><path d="M0 61L82 121L164 55L245 55L327 73L409 79L491 127L573 91L655 43L736 85L818 49L900 91L900 0L818 0L736 0L655 0L573 0L491 0L409 0L327 0L245 0L164 0L82 0L0 0Z" fill="#202020"></path><path d="M0 103L82 157L164 139L245 115L327 133L409 121L491 163L573 151L655 79L736 181L818 139L900 169L900 89L818 47L736 83L655 41L573 89L491 125L409 77L327 71L245 53L164 53L82 119L0 59Z" fill="#2c2b2b"></path><path d="M0 373L82 325L164 349L245 283L327 385L409 313L491 343L573 361L655 349L736 379L818 277L900 283L900 167L818 137L736 179L655 77L573 149L491 161L409 119L327 131L245 113L164 137L82 155L0 101Z" fill="#383636"></path><path d="M0 499L82 409L164 433L245 355L327 457L409 397L491 433L573 499L655 445L736 499L818 433L900 391L900 281L818 275L736 377L655 347L573 359L491 341L409 311L327 383L245 281L164 347L82 323L0 371Z" fill="#444141"></path><path d="M0 601L82 601L164 601L245 601L327 601L409 601L491 601L573 601L655 601L736 601L818 601L900 601L900 389L818 431L736 497L655 443L573 497L491 431L409 395L327 455L245 353L164 431L82 407L0 497Z" fill="#514d4d"></path></svg>